<svg style='width: 100%;border-radius:100%;overflow:hidden;' version="1.1" id="Layer_1" xmlns="http://www.w3.org/2000/svg" xmlns:xlink="http://www.w3.org/1999/xlink" x="0px" y="0px"
	 viewBox="0 0 100 100" enable-background="new 0 0 100 100" xml:space="preserve">
<g>
	<circle class="fillColor1" cx="50" cy="50" r="50"/>
	<circle fill="#FFFFFF" cx="50" cy="50" r="39.7"/>
	<path class="fillColor1" d="M89.7,37.7h-20c-5.5,0-10-4.5-10-10v-20h5c13.8,0,25,11.2,25,25V37.7z"/>
	<path class="fillColor1" d="M45.2,78.5h44.7V58.6H45.2c-2.9,0-5.2,2.3-5.2,5.2v9.4C40,76.2,42.3,78.5,45.2,78.5z"/>
	<text transform="matrix(1 0 0 1 47.5641 74.1231)" style='fill:#FFFFFF' font-family="'Arial-BoldMT'" font-size="16">File</text>
</g>
<g>
	<polygon fill="#86BE44" stroke="#FFFFFF" stroke-miterlimit="10" points="10.2,69.9 35.2,69.9 22.7,89.4 	"/>
	<path fill="#86BE44" d="M26.3,73h-7.2c-1.4,0-2.5-1.1-2.5-2.5V50.5c0-1.4,1.1-2.5,2.5-2.5h7.2c1.4,0,2.5,1.1,2.5,2.5v19.9
		C28.8,71.9,27.7,73,26.3,73z"/>
</g>
</svg>